<svg xmlns="http://www.w3.org/2000/svg" viewBox="0 0 24 24" fill="currentColor">
  <path
    d="M9 3v-2h6v2H9Z M12 22q-1.85 0-3.4875-0.7125T5.65 19.35q-1.225-1.225-1.9375-2.8625T3 13q0-1.85 0.7125-3.4875T5.65 6.65q1.225-1.225 2.8625-1.9375T12 4q1.55 0 2.975 0.5t2.675 1.45l1.4-1.4 1.4 1.4-1.4 1.4q0.95 1.25 1.45 2.675t0.5 2.975q0 1.85-0.7125 3.4875T18.35 19.35q-1.225 1.225-2.8625 1.9375T12 22Zm0-2q2.9 0 4.95-2.05t2.05-4.95q0-2.9-2.05-4.95t-4.95-2.05q-2.9 0-4.95 2.05t-2.05 4.95q0 2.9 2.05 4.95t4.95 2.05Zm0-7Zm-2 4 6-4-6-4v8Z" />
</svg>