<svg xmlns="http://www.w3.org/2000/svg" viewBox="0 0 24 24" fill="currentColor">
  <path
    d="M9 3v-2h6v2H9Z M12 22 q-1.85 0-3.49-0.71T5.65 19.35 q-1.225-1.225-1.938-2.863T3 13 q0-1.85 0.713-3.49T5.65 6.65 q1.225-1.225 2.863-1.938T12 4 q1.55 0 2.975 0.5t2.675 1.45 l1.4-1.4l1.4 1.4l-1.4 1.4 q0.95 1.25 1.45 2.675t0.5 2.975 q0 1.85-0.713 3.49T18.35 19.35 q-1.225 1.225-2.863 1.938T12 22Z m0-2 q2.9 0 4.95-2.05t2.05-4.95 q0-2.9-2.05-4.95t-4.95-2.05 q-2.9 0-4.95 2.05t-2.05 4.95 q0 2.9 2.05 4.95t4.95 2.05Z M9 17h2v-8h-2v8Z M13 17h2v-8h-2v8Z" />
</svg>