<svg xmlns="http://www.w3.org/2000/svg" viewBox="0 0 1067 191">
  <g fill="currentColor">
    <path
      d="M77.812,98.511c2.494,-7.98 7.274,-14.381 14.34,-19.203c7.066,-4.822 15.67,-7.233 25.812,-7.233c10.142,0 19.038,3.658 26.686,10.974c7.648,7.315 11.472,17.208 11.472,29.678l-0,74.32l-7.981,-0l0,-74.32c0,-9.643 -3.159,-17.666 -9.477,-24.067c-6.318,-6.401 -13.924,-9.601 -22.82,-9.601c-8.895,-0 -16.792,3.325 -23.692,9.975c-6.9,6.651 -10.35,14.382 -10.35,23.194l-0,74.819l-7.981,-0l0,-74.819c0,-8.978 -3.159,-16.751 -9.477,-23.318c-6.318,-6.568 -13.966,-9.851 -22.944,-9.851c-8.979,-0 -16.793,3.325 -23.443,9.975c-6.651,6.651 -9.976,14.382 -9.976,23.194l-0,74.819l-7.981,-0l-0,-112.228l7.981,-0l-0,15.712c3.325,-4.988 8.271,-9.311 14.839,-12.969c6.567,-3.658 13.384,-5.487 20.45,-5.487c7.066,0 13.842,2.453 20.326,7.358c6.484,4.904 11.223,11.264 14.216,19.078Z" />
    <path
      d="M298.028,74.819l0,112.228l-7.98,-0l-0,-27.932c-4.656,9.477 -11.639,16.959 -20.95,22.445c-9.311,5.487 -19.286,8.23 -29.927,8.23c-16.294,0 -30.26,-5.777 -41.899,-17.333c-11.638,-11.555 -17.457,-25.396 -17.457,-41.524c-0,-16.128 5.819,-29.969 17.457,-41.525c11.639,-11.555 25.605,-17.333 41.899,-17.333c10.641,0 20.824,2.827 30.551,8.48c9.726,5.653 16.501,13.135 20.326,22.446l-0,-28.182l7.98,-0Zm-110.233,56.363c0,13.966 5.113,26.062 15.338,36.287c10.225,10.226 22.363,15.338 36.412,15.338c14.049,0 26.062,-5.112 36.038,-15.338c9.975,-10.225 14.963,-22.362 14.963,-36.411c0,-14.05 -5.029,-26.229 -15.088,-36.537c-10.059,-10.308 -22.072,-15.462 -36.038,-15.462c-13.966,-0 -26.062,5.195 -36.287,15.587c-10.225,10.391 -15.338,22.57 -15.338,36.536Z" />
    <path
      d="M439.935,0l-0,187.047l-7.981,-0l-0,-27.184c-4.988,9.144 -12.221,16.418 -21.698,21.822c-9.477,5.404 -19.203,8.105 -29.179,8.105c-16.46,0 -30.468,-5.777 -42.023,-17.333c-11.555,-11.555 -17.333,-25.396 -17.333,-41.524c-0,-16.128 5.778,-29.969 17.333,-41.525c11.555,-11.555 25.563,-17.333 42.023,-17.333c10.308,0 20.243,2.744 29.803,8.231c9.56,5.486 16.585,12.802 21.074,21.946l-0,-102.252l7.981,0Zm-110.233,131.058c-0,14.049 4.987,26.186 14.963,36.411c9.976,10.226 21.989,15.338 36.038,15.338c14.049,0 26.187,-5.112 36.412,-15.338c10.225,-10.225 15.338,-22.321 15.338,-36.287c-0,-13.966 -5.113,-26.145 -15.338,-36.536c-10.225,-10.392 -22.321,-15.587 -36.287,-15.587c-13.966,-0 -25.979,5.154 -36.038,15.462c-10.059,10.308 -15.088,22.487 -15.088,36.537Z" />
    <path
      d="M525.976,190.04l-2.244,-0c-15.795,-0 -29.554,-5.944 -41.275,-17.832c-11.722,-11.888 -17.583,-25.729 -17.583,-41.524c0,-15.796 5.819,-29.471 17.458,-41.026c11.638,-11.555 26.02,-17.333 43.145,-17.333c17.126,-0 31.84,6.817 44.143,20.45l-78.31,77.313c10.807,8.646 21.199,12.969 31.175,12.969c9.975,-0 18.912,-2.286 26.81,-6.859c7.897,-4.572 14.423,-10.682 19.577,-18.33l0,12.719c-11.804,12.968 -26.103,19.453 -42.896,19.453Zm-2.619,-110.732c-13.217,-0 -24.939,5.113 -35.164,15.338c-10.226,10.225 -15.338,21.988 -15.338,35.289c-0,13.301 4.406,24.94 13.218,34.916l72.574,-72.076c-10.308,-8.978 -22.072,-13.467 -35.29,-13.467Z" />
    <rect x="588.325" y="82.799" width="77.562" height="7.731" />
    <path
      d="M682.098,74.819l8.23,-0l46.138,98.012l21.698,-45.639l-24.192,-51.874l7.981,-0l20.201,44.143l20.7,-44.642l7.482,-0l-24.441,52.373l21.448,46.138l45.64,-98.262l7.232,0l-53.121,114.722l-25.439,-54.617l-25.687,54.617l-53.87,-114.971Z" />
    <rect x="864.656" y="75.068" width="7.981" height="111.979" />
    <circle cx="868.448" cy="30.55" r="20.833" fill="#821717" />
    <path
      d="M945.959,181.56l0,6.983c-11.805,0 -21.864,-3.948 -30.177,-11.846c-8.313,-7.897 -12.47,-17.998 -12.47,-30.302l0,-116.717l7.981,0l-0,45.39l34.417,0l-0,6.983l-34.417,0l-0,64.344c-0,10.143 3.367,18.539 10.101,25.189c6.733,6.651 14.922,9.976 24.565,9.976Z" />
    <path
      d="M973.891,187.047l-7.98,-0l-0,-186.798l7.98,0l0,96.267c8.314,-16.294 22.695,-24.441 43.146,-24.441c13.966,0 25.729,4.822 35.289,14.465c9.561,9.644 14.341,21.365 14.341,35.165l-0,65.342l-7.981,-0l-0,-65.342c-0,-11.638 -4.073,-21.656 -12.22,-30.052c-8.147,-8.396 -17.957,-12.594 -29.429,-12.594c-11.472,-0 -21.531,4.239 -30.177,12.719c-8.646,8.479 -12.969,18.455 -12.969,29.927l0,65.342Z" />
  </g>
</svg>