<svg xmlns="http://www.w3.org/2000/svg" viewBox="0 0 1607 866">
  <g fill="currentColor">
    <path
      d="M455.203,15.963l0,544.802l59.218,0l-0,142.122l-59.218,0l0,146.757l-208.034,0l0,-146.757l-247.169,0l0,-142.122l179.713,-544.802l275.49,0Zm-208.034,544.802l0,-354.791l-91.658,354.791l91.658,0Z" />
    <path
      d="M1048.41,298.148l0,278.065c0,63.166 -3.432,109.167 -10.298,138.003c-6.866,28.836 -21.113,55.785 -42.74,80.845c-21.627,25.06 -47.717,43.083 -78.27,54.068c-30.553,10.986 -64.71,16.478 -102.472,16.478c-49.778,0 -91.144,-5.75 -124.1,-17.25c-32.956,-11.5 -59.218,-29.437 -78.785,-53.811c-19.568,-24.374 -33.471,-50.035 -41.71,-76.983c-8.239,-26.948 -12.358,-69.774 -12.358,-128.476l-0,-290.939c-0,-76.554 6.608,-133.883 19.825,-171.989c13.216,-38.105 39.478,-68.658 78.785,-91.658c39.307,-23.001 86.938,-34.501 142.894,-34.501c45.658,0 86.51,7.982 122.555,23.945c36.046,15.963 62.994,35.444 80.845,58.445c17.851,23 29.952,48.919 36.303,77.755c6.351,28.836 9.526,74.837 9.526,138.003Zm-208.034,-70.031c0,-44.285 -2.145,-72.006 -6.436,-83.163c-4.291,-11.156 -14.333,-16.735 -30.124,-16.735c-15.448,0 -25.661,5.922 -30.639,17.765c-4.977,11.844 -7.466,39.221 -7.466,82.133l-0,406.799c-0,48.404 2.317,77.584 6.951,87.539c4.635,9.955 14.676,14.933 30.124,14.933c15.448,0 25.575,-5.836 30.381,-17.508c4.806,-11.672 7.209,-37.933 7.209,-78.785l0,-412.978Z" />
    <path
      d="M1547.38,15.963l0,544.802l59.218,0l-0,142.122l-59.218,0l0,146.757l-208.034,0l0,-146.757l-247.169,0l0,-142.122l179.713,-544.802l275.49,0Zm-208.034,544.802l0,-354.791l-91.658,354.791l91.658,0Z" />
  </g>
</svg>