<svg xmlns="http://www.w3.org/2000/svg" viewBox="0 0 3000 3000">
	<g fill="currentColor">
		<path d="M285.514,1966.161c16.772,11.495,101.242-32.731,127.491-37.29c73.616-21.427,148.837-9.922,143.864,82.375
	c-7.942,137.717-249.393,237.695-238.186,384.432c1.808,5.275,6.381,8.616,11.786,9.307c9.824,1.462,25.255-2.719,36.065-6.455
	c65.184-24.562,132.647-78.336,203.484-87.377c74.045-8.857,116.784,49.99,85.679,118.049
	c-17.271,39.923-44.577,74.343-77.908,101.63c-27.283,28.415-157.506,87.661-153.722,116.693
	c6.926,10.378,27.982,12.395,40.084,16.18c181.637,38.854,374.939,13.25,558.79,32.121c49.632,5.395,110.019,14.208,148.443,45.793
	c45.319,39.032,4.973,97.562-42.776,113.167c-54.627,21.985-131.116,23.909-192.708,23.069
	c-234.883-4.938-470.355-6.359-705.023-10.883c-54.763-1.064-121.689,0.533-139.203-62.884
	c-21.938-89.058-11.5-183.592-10.211-275.571c2.354-156.478,16.791-318.2,6.617-474.275
	c-7.598-92.112-25.406-184.199-19.473-277.066c1.546-35.207,4.541-70.437,7.056-105.602c6.529-86.255,5.123-172.922,7.434-259.317
	c4.756-67.431-23.856-197.89,53.761-228.966c159.026-30.735,256.882,365.472,244.648,481.295
	c-2.628,52.997-24.806,104.177-47.848,149.853c-16.538,34.181-58.721,114.629-48.204,151.644L285.514,1966.161z" />
		<path d="M1752.412,2171.301c14.54,18.266,50.579,26.085,64.306,2.43c32.371-63.519,77.601-134.891,146.835-157.523
	c33.322-12.252,73.22-5.506,97.784,21.001c55.661,58.316,16.851,167.983-23.15,237.357c-2.899,6.474-4.682,12.993-4.557,19.581
	c-0.143,14.753,11.064,30.514,26.718,28.563c12.465-1.413,24.319-11.541,35.963-18.308c30.745-18.448,65.635-35.305,102.326-33.47
	c36.147,0.944,67.744,28.829,69.983,65.213c1.896,20.834-3.831,42.105-11.788,61.273c-23.66,58.918-72.524,101.554-123.611,137.296
	c-15.223,11.821-20.307,30.084-19.793,48.69c-0.514,81.628,3.727,181.325-34.571,254.79c-14.381,23.242-38.556,36.112-65.276,41.391
	c-220.407,25.051-444.83,10.927-664.748-12.961c-17.064-2.029-34.348-4.021-50.649-9.585
	c-69.021-22.504-59.303-89.634-66.988-147.799c-19.582-97.57-18.41-195.182,12.418-290.277c4.428-17.027,3.445-33.324-3.41-49.14
	c-36.261-79.868-89.633-203.125-18.546-264.004c46.441-36.781,108.229-3.322,143.593,33.793
	c19.743,18.935,33.389,42.049,49.532,63.543c9.59,12.93,25.284,12.695,39.573,6.614c14.526-5.409,31.978-13.143,36.976-28.815
	c3.118-8.987,2.87-18.742,2.724-28.284c-1.751-71.806,7.787-162.551,78.285-198.17c43.345-19.214,91.893,5.679,120.003,39.864
	c32.143,39.38,45.212,90.534,50.385,140.241c1.289,12.232,2.262,26.764,9.583,36.555L1752.412,2171.301z M1580.371,2356.347
	c-33.729,9.905-80.455,51.659-101.44,79.809c-21.892,30.977-31.814,69.559-35.569,107.27c-4.46,47.088,8.729,99.55,51.034,125.107
	c66.696,39.213,224.396,49.671,285.742,24.937c60.576-24.304,64.305-135.549,50.692-193.593
	c-13.556-56.029-56.718-93.249-108.833-113.417c-35.391-13.635-105.509-39.336-141.462-30.157L1580.371,2356.347z" />
		<path d="M1514.678,809.288c45.312-6.69,91.918,13.362,116.776,52.074c10.708,16.206,17.413,34.657,28.492,50.64
	c7.147,10.939,17.702,17.288,30.425,17.822c79.445,4.816,183.464-40.495,245.371,28.512
	c88.095,98.183-16.083,201.425-119.912,216.427c-111.454,20.53-208.259-32.48-283.042-110.337
	c-13.554-12.73-29.906-26.238-49.469-22.319c-14.654,3.211-33.819,12.296-40.953,25.979c-2.757,6.046-0.852,11.529,4.184,17.383
	c10.259,11.834,30.211,26.354,43.562,36.555c49.505,34.072,74.931,88.987,35.106,141.064c-10.075,13.786-23.838,24.009-34.794,37.28
	c-16.206,18.988-12.789,33.329,6.117,48.072c19.432,15.681,40.963,28.084,59.318,45.233
	c204.361,187.339-89.833,571.519-322.248,533.582c-37.386-8.394-71.182-36.13-75.746-74.988
	c-11.142-155.465,315.04-118.716,271.078-319.713c-28.682-86.292-175.661-47.309-214.066-133.2
	c-29.798-61.877,25.766-106.535,63.107-150.659c8.669-11.6,22.615-28.463,17.276-43.536c-9.064-19.456-36.528-36.935-53.178-51.527
	c-15.209-12.455-29.482-26.997-39.562-44.214c-52.407-85.774,8.616-201.438,112.463-199.276c10.361-0.243,20.097,0.271,29.082,0.588
	c17.268,0.604,32.338,0.45,47.619-7.367c7.311-3.647,14.706-9.536,20.86-15.473c32.925-33.503,49.469-72.545,101.922-78.573
	L1514.678,809.288z" />
		<path d="M2529.393,392.489c62.141-9.891,84.037,60.149,87.233,110.358c5.994,94.791-23.899,188.77-29.699,283.201
	c-2.807,37.772-0.285,75.745,0.823,113.531c1.385,39.258-1.426,82.638-41.073,99.864c-20.995,9.852-46.892,14.131-69.704,17.453
	c-75.238,9.622-149.628,6.633-214.603,49.355c-10.437,7.243-23.194,14.973-29.957,25.624c-4.609,7.824-0.511,17.34,3.751,25.209
	c36.163,60.631,89.295,108.863,130.465,166.446c27.152,38.052,54.392,76.842,26.475,122.99c-4.776,8.495-10.945,17.291-16.94,25.066
	c-42.406,53.147-99.81,115.286-148.884,160.459c-27.861,25.937-84.536,66.142-120.931,38.12
	c-69.535-67.671,64.096-197.649,57.294-273.12c-2.116-28.922-19.578-48.237-41.982-71.836
	c-26.957-27.514-57.454-50.658-80.462-77.184c-164.344-186.793,137.09-289.59,254.472-389.929
	c24.283-23.544,54.413-57.036,74.039-81.879c10.091-12.771,14.865-28.554,20.077-43.821c12.589-37.166,24.76-73.875,35.294-111.44
	c8.951-30.972,17.844-62.178,28.013-92.771c13.184-39.145,32.104-89.045,76.095-95.664L2529.393,392.489z" />
		<path d="M2433.701,136.712c5.174,0.902,9.193-6.52,12.472-11.084c7.816-12.18,18.76-24.298,30.198-32.665
	c48.245-37.594,127.011-14.896,157.822,35.684c10.509,19.257,16.113,7.839,27.383-3.561c28.482-30.275,66.51-54.415,109.645-48.919
	c94.476,8.976,127.605,124.956,80.263,201.122c-2.216,4.091-3.681,7.779-3.555,11.036c0.341,8.512,10.754,13.166,16.273,19.398
	c49.033,52.965,40.644,146.273-15.648,190.282c-6.416,5.856-7.458,11.144-1.328,17.671c53.203,45.954,60.4,134.561,8.993,183.883
	c-11.19,10.186-12.881,16.974-2.104,28.873c45.169,49.596,46.388,120.761,7.746,175.824
	c-60.749,96.666-221.393,93.23-217.653-43.169c0.647-50.141,28.065-93.954,64.464-126.695c7.84-7.423,3.515-13.952-3.667-19.747
	c-62.361-45.661-56.607-136.235-6.156-189.573c3.697-4.025,8.779-9.043,9.344-14.301c0.44-9.734-11.464-16.246-16.831-24.737
	c-22.315-30.336-21.532-70.27-6.263-105.085c4.38-10.728,12.153-20.106,17.991-29.899c12.4-21.981-41.087-8.37-71.94-66.692
	c-2.552-4.65-5.356-11.978-10.553-13.079c-3.781-0.98-9.734,3.145-13.462,5.901c-55.898,41.996-130.85,35.699-170.148-24.054
	c-8.901-12.015-14.594,0.368-20.16,8.585c-83.551,120.259-322.393,58.473-251.886-97.316
	c41.606-94.811,195.786-135.929,257.98-39.66c2.622,4.034,6.574,10.953,10.677,11.954L2433.701,136.712z" />
		<path d="M2216.538,2780.175c81.289-78.464,235.256-53.709,340.682-52.77c8.661-0.016,22.656,0.441,29.24-1.551
	c4.339-1.35,3.922-4.369-0.238-8.444c-40.044-35.194-89.343-59.117-132.628-90.24c-46.121-33.489-114.641-80.729-123.276-144.912
	c-2.136-19.151,4.029-40.912,16.775-56.18c15.006-18.129,37.713-24.859,60.643-25.708c109.772-3.129,169.11,89.299,231.165,164.866
	c7.511,8.815,14.756,17.241,23.48,24.97c18.593,16.476,32.707,18.641,33.676-10.67c1.262-25.028-5.058-54.06-5.933-79.194
	c-3.563-67.392,33.772-123.948,103.518-138.803c26.051-6.539,55.916-4.33,74.037,15.689
	c55.311,64.671,21.287,210.403,17.917,280.045c-3.4,55.817-4.841,112.781-25.771,165.182c-8.054,22.152-15.517,47.964-37.691,59.59
	c-11.207,6.275-24.184,8.875-37.468,10.213c-64.422,5.001-131.169,0.593-196.008,1.922c-82.669-1.474-322.645,41.794-379.878-36.724
	c-18.816-24.368-13.969-54.941,7.621-77.132L2216.538,2780.175z" />
		<path d="M1895.808,1717.688c-2.991,4.327-1.343,10.803-0.27,15.864c8.092,35.514,12.315,72.07,4.572,107.546
	c-6.069,28.182-20.981,54.916-43.031,74.061c-57.383,49.85-131.112,22.498-140.125-51.319c-0.971-6.037-1.816-12.19-2.786-18.221
	c-1.897-11.631-2.865-17.407-12.717-23.628c-14.295-9.273-30.639-17.256-42.128-29.779
	c-44.114-45.499-21.477-116.013,14.992-160.985c15.067-18.606,35.893-40.512,46.669-58.332c3.102-5.427,3.449-9.505,1.631-14.672
	c-1.413-4.147-4.055-9.444-7.415-15.581c-14.028-25.975-34.656-53.379-48.537-79.888c-22.406-43.718-32.664-93.711-13.934-140.503
	c29.157-79.592,142.052-108.525,202.897-47.086c4.93,4.753,9.799,9.907,14.834,14.687c9.109,8.751,16.406,14.425,28.887,13.849
	c5.186-0.108,10.85-0.874,16.805-1.473c45.842-5.785,93.34,9.604,112.559,45.547c25.535,42.19,14.946,114.288-13.348,162.608
	c-3.555,6.259-7.787,13.308-11.061,19.081c-5.253,8.663-6.515,14.94-3.095,24.646c27.317,68.103-26.703,147.092-96.74,158.517
	c-3.884,1.074-6.911,2.564-8.585,4.953L1895.808,1717.688z" />
		<path d="M1123.708,64.757c53.314-5.834,105.577,11.293,158.125,14.4c90.589,7.277,182.385,1.235,273.25,1.858
	c143.359,1.134,286.78,19.02,430.057,24.682c27.592,2.072,57.339,8.325,74.104,31.506c43.263,64.695,1.919,263.806-40.686,337.186
	c-12.991,21.996-36.322,42.559-60.709,48.095c-42.915,12.449-82.776-24.781-92.517-67.309c-13.6-47.834-1.343-95.088-1.804-144.17
	c-0.077-11.706-1.028-23.798-6.036-34.246c-7.019-15.085-24.856-24.847-41.296-26.499c-43.906-2.69-54.307,60.441-85.133,84.891
	c-47.306,48.129-106.309,4.036-137.979-39.065c-68.93-95.264-112.732,99.002-209.287,54.105
	c-30.297-11.856-47.12-39.17-68.061-62.952c-17.986-20.078-36.141-39.183-62.974-35.963c-78.982,17.439-59.515,129.653-25.36,185.89
	c89.238,153.578,248.411-26.575,368.83,41.4c137.367,76.421,34.994,291.753-108.288,243.422
	c-28.393-8.503-44.367-30.971-58.231-55.374c-8.825-12.218-16.936-33.548-33.503-34.381c-22.181,4.385-35.016,32.643-49.843,48.337
	c-15.746,20.365-39.666,34.06-66.191,33.831c-59.394,2.134-89.173-46.678-118.617-91.448
	c-10.804-13.629-19.429-33.902-37.241-39.038c-8.818-1.538-18.198,1.528-27.172,2.093c-16.648,1.409-31.547-1.448-44.746-10.046
	c-46.948-33.348-58.978-139.52-57.53-194.403c-0.381-110.643-9.5-300.335,128.636-316.776L1123.708,64.757z" />
		<path d="M2187.958,339.879c41.54-4.138,83.562,9.484,118.887,33.937c27.533,19.328,49.839,45.588,61.086,75.848
	c4.344,11.569,6.869,23.748,7.912,36.358c14.602,195.226-168.626,369.422-353.634,395.534
	c-101.919,14.094-229.184-22.758-282.568-116.836c-13.86-24.821-21.291-56.172-20.053-86.592c0.366-11.167,1.773-22.346,4.19-33.185
	c14.499-66.12,63.183-107.811,125.266-77.596c46.212,20.348,65.665,65.245,119.375,68.298c26.731,2.087,47.166-5.249,70.182-19.069
	c98.067-53.205,4.843-260.746,149.146-276.673L2187.958,339.879z" />
		<path d="M941.065,1530.245c1.963,1.72,5.673,2.093,10.179,1.969c54.324-3.215,107.659-17.469,161.769-23.032
	c52.082-4.962,130.366-5.547,175.408,24.776c16.653,11.3,26.384,29.806,24.825,49.744c-5.205,56.585-98.652,79.398-150.089,91.37
	c-69.749,16.53-149.172,11.049-215.873,36.51c-14.04,5.448-26.946,12.741-38.503,22.291
	c-48.774,40.906-77.481,103.152-118.82,149.89c-37.529,43.589-119.396,114.326-169.726,55.417
	c-33.488-45.152,6.726-122.933,34.205-167.235c10.27-16.318,25.777-40.66,30.358-54.086c0.78-2.441,1.464-5.049,1.317-7.472
	c-0.133-4.178-2.567-7.57-5.314-10.68c-16.544-18.167-53.702-41.582-75.615-59.456c-51.681-43.366-132.435-126.298-119.476-193.62
	c9.546-41.919,44.607-56.004,87.606-42.934c58.441,16.849,125.758,68.494,167.225,104.453c3.884,3.275,8.539,6.33,12.606,7.745
	c6.294,2.483,10.529-0.685,13.065-6.143c14.745-29.536,35.364-95.45,51.829-132.94c40.865-90.956,139.841-284.922,256.057-265.124
	c41.1,9.69,49.791,53.571,42.82,89.754c-20.761,98.67-124.614,213.392-171.331,306.806c-2.25,5.486-9.415,17.078-4.603,21.926
	L941.065,1530.245z" />
		<path d="M826.961,2101.07c4.576-1.959,5.94-8.499,7.32-13.151c27.271-97.427,138.605-211.015,247.152-163.987
	c109.006,51.649,69.472,242.282,39.137,354.049c-24.455,86.826-55.571,179.304-100.919,257.423
	c-14.594,23.611-33.529,60.729-66.364,49.923c-12.03-3.936-24.861-13.539-34.531-22.255
	c-34.653-31.66-71.805-76.125-102.435-112.875c-24.629-29.741-47.806-59.559-72.43-97.949
	c-40.362-65.444-74.521-135.001-57.056-201.401c14.953-54.778,73.593-69.606,124.545-51.82c4.714,1.561,11.666,3.947,15.47,2.093
	L826.961,2101.07z" />
		<path d="M594.761,375.116c77.429-6.449,260.658,24.222,322.004,71.774c46.357,37.682,52.566,112.262,9.301,154.246
	c-20.888,20.869-50.74,30.871-79.783,33.35c-49.873,4.457-99.464-9.258-149.323,1.874
	c-138.776,28.157-130.184,201.405-53.505,294.874c13.011,16.469,27.06,29.146,43.366,42.126
	c58.988,48.464,144.316,87.541,172.658,161.447c17.465,45.455-7.314,106.919-43.891,139.219
	c-103.466,91.212-300.851,45.539-395.448-41.364c-99.654-96.189-89.875-276.566-77.183-418.208
	c18.955-171.499,37.811-424.06,251.604-439.321L594.761,375.116z" />
		<path d="M309.534,247.5c-98.244,190.788,34.5,584.335-47.786,797.013c-24.517,71.023-97.757,97.432-142.193,25.621
	c-119.628-232.255-2.202-491.741-11.687-734.715c-0.808-48.927-3.286-97.962,4.737-146.481
	C132.046,42.526,271.149,78.764,376.478,84.719c114.959,4.321,230.107-5.196,344.822,5.629
	c60.685,7.544,121.561-14.272,181.651-3.152c83.768,18.577,34.889,121.33-22.05,152.107
	c-173.643,119.888-445.34-65.183-571.245,8.08L309.534,247.5z" />
		<path d="M1038.033,638.259c46.603-4.505,94.4,23.003,108.726,67.717c29.628,101.12-52.372,266.806-153.882,288.707
	c-28.051,5.986-54.538,1.625-83.01-3.576c-56.796-12.061-114.296-30.959-154.024-58.418
	c-54.14-39.619-86.524-123.078-48.473-181.426c34.571-54.2,103.631-54.171,159.434-33.02c3.774,1.332,7.804,2.688,11.646,3.241
	c7.443,1.243,14.355-1.066,20.576-5.212c43.878-30.586,83.424-73.37,138.807-77.994L1038.033,638.259z" />
		<path d="M2706.076,1235.177c-1.241-1.247-3.781-1.729-6.974-1.758c-12.655,0.551-23.511,3.082-33.429,5.752
	c-34.507,9.469-66.135,25.949-101.842,31.608c-132.187,21.273-153.843-94.837-73.861-167.363
	c81.859-76.522,240.222-103.841,342.515-58.49c46.442,22.952,63.513,70.646,64.568,120.47
	c9.29,125.038-50.298,208.45-159.228,262.795c-45.636,23.587-114.672,54.779-107.629,116.432
	c3.379,42.773,41.839,64.25,81.097,64.809c29.819,1.031,60.92-3.235,90.204,1.38c23.514,3.36,45.555,13.696,60.561,32.78
	c55.192,69.015,4.324,165.193-61.751,208.916c-43.539,28.63-100.3,36.77-143.955,64.639c-23.823,14.862-41.198,34.245-42.609,60.851
	c-0.818,17.151,4.103,36.724,16.36,49.293c17.344,17.177,40.814,20.619,66.663,22.506c35.332,2.251,66.172-2.598,99.599,7.214
	c117.053,34.067,79.879,194.733,5.633,263.373c-42.994,41.103-111.75,71.588-167.087,40.708
	c-29.38-17.373-36.943-46.422-27.919-78.077c7.027-24.306,22.89-42.954,39.178-62.207c9.625-11.211,15.283-18.778-1.276-23.453
	c-9.592-3.013-22.536-5.56-33.15-7.747c-120.297-18.787-200.453-135.185-161.568-255.147
	c22.879-71.746,87.201-115.326,144.721-158.55c19.133-13.605,9.51-18.671-8.359-25.844c-9.599-4.02-19.309-7.901-28.713-12.202
	c-25.581-11.025-48.673-28.43-63.647-52.226c-55.639-85.696-42.486-211.187,26.989-285.184
	c42.085-47.966,97.675-78.424,146.389-119.214c7.374-6.267,45.21-38.32,38.585-46.001L2706.076,1235.177z" />
		<path d="M2382.223,1588.622c41.455,42.339,2.953,119.206,27.975,158.303c7.438,10.459,19.159,14.059,29.49,20.933
	c15.024,9.207,24.853,25.434,21.829,43.27c-6.207,37.288-39.337,68.089-58.329,99.974c-45.28,72.46-39.461,151.676,16.074,216.47
	c14.416,17.21,30.183,31.231,40.164,51.828c43.149,88.806-67.483,149.411-142.482,107.126
	c-89.992-48.425-94.312-160.081-134.318-241.171c-9.132-18.005-22.354-36.124-38.627-47.745
	c-40.559-30.056-93.595-24.082-130.764-60.148c-88.766-91.726-12.488-216.207,106.12-235.344c13.789-2.59,28.286-2.215,42.443-2.271
	c5.618-0.017,11.645-0.483,15.597-2.477c9.338-5.2,15.572-16.658,22.883-24.562c13.333-15.927,28.714-28.65,43.88-42.162
	c34.175-28.998,94.411-84.202,137.926-42.161L2382.223,1588.622z" />
	</g>
</svg>