<svg xmlns="http://www.w3.org/2000/svg" viewBox="0 0 2202 776">
  <g fill="currentColor">
    <path
      d="M292.965,608.611l13.231,-11.341c13.23,-11.97 30.084,-31.816 50.56,-59.538c20.476,-27.721 40.794,-66.783 60.955,-117.186c6.931,-15.75 15.751,-23.626 26.462,-23.626c8.82,0 13.23,5.04 13.23,15.121c0,3.78 -0.945,8.505 -2.835,14.176c-14.491,40.952 -30.084,75.918 -46.78,104.9c-16.696,28.981 -33.864,53.553 -51.505,73.714c-17.641,20.161 -35.124,36.384 -52.45,48.67c-17.326,12.285 -33.549,21.578 -48.67,27.879c-16.381,24.571 -35.439,45.834 -57.175,63.79c-21.737,17.956 -47.095,26.934 -76.077,26.934c-18.901,0 -34.967,-4.095 -48.197,-12.285c-13.231,-8.191 -23.941,-18.271 -32.132,-30.242c-8.19,-11.971 -14.176,-25.044 -17.956,-39.219c-3.78,-14.176 -5.67,-26.934 -5.67,-38.275c-0,-21.421 2.678,-40.637 8.033,-57.648c5.355,-17.011 11.813,-31.501 19.373,-43.472c7.561,-11.971 15.594,-20.949 24.099,-26.934c8.505,-5.985 15.593,-8.978 21.264,-8.978c7.56,0 15.12,6.3 22.681,18.901c7.56,12.601 15.751,30.242 24.571,52.923c12.601,34.022 23.311,58.593 32.132,73.714c9.45,-1.261 18.586,-2.678 27.406,-4.253c8.82,-1.575 17.641,-3.938 26.461,-7.088c4.411,-8.82 6.616,-16.696 6.616,-23.626c-0,-11.341 -3.15,-24.729 -9.451,-40.165c-6.3,-15.436 -14.333,-31.816 -24.098,-49.142c-9.766,-17.326 -20.634,-34.967 -32.605,-52.923c-11.97,-17.956 -23.783,-34.967 -35.439,-51.033c-11.656,-16.065 -22.524,-30.871 -32.604,-44.417c-10.081,-13.545 -17.956,-24.729 -23.626,-33.549c-4.411,14.491 -8.191,26.934 -11.341,37.329c-3.15,10.396 -6.3,19.374 -9.45,26.934c-4.411,12.601 -8.348,20.949 -11.813,25.044c-3.466,4.095 -8.033,6.143 -13.704,6.143c-10.08,-0 -15.12,-5.985 -15.12,-17.956c-0,-4.41 0.63,-8.506 1.89,-12.286c5.04,-16.381 9.293,-31.029 12.758,-43.944c3.465,-12.916 6.458,-23.784 8.978,-32.605c2.52,-10.71 4.725,-19.846 6.615,-27.406c-10.71,-13.231 -20.318,-28.509 -28.824,-45.835c-8.505,-17.326 -12.758,-39.534 -12.758,-66.626c-0,-19.531 3.623,-41.109 10.868,-64.735c7.245,-23.627 16.538,-45.678 27.879,-66.154c11.341,-20.476 23.784,-37.644 37.329,-51.505c13.546,-13.861 26.619,-20.791 39.22,-20.791c7.56,0 14.333,2.363 20.318,7.088c5.986,4.725 11.026,10.868 15.121,18.428c4.095,7.561 7.246,16.224 9.451,25.989c2.205,9.766 3.307,19.374 3.307,28.824c0,21.421 -3.78,45.677 -11.34,72.769c-0.63,2.52 -1.418,6.143 -2.363,10.868c-0.945,4.725 -1.417,9.608 -1.417,14.648c-0,18.271 11.97,43.787 35.911,76.549c23.942,32.762 53.868,69.618 89.78,110.571c17.011,19.531 29.296,40.164 36.857,61.9c7.56,21.736 11.34,46.78 11.34,75.132c0,8.82 -0.945,18.428 -2.835,28.823c-1.89,10.396 -4.095,19.059 -6.615,25.989l-19.846,51.033Z" />
    <path
      d="M619.006,687.995c15.121,-0 28.352,-5.04 39.692,-15.121c11.341,-10.08 20.949,-23.311 28.824,-39.692c7.876,-16.381 14.334,-35.439 19.374,-57.175c5.04,-21.736 8.82,-44.26 11.34,-67.571c-18.27,-12.601 -36.069,-28.982 -53.395,-49.143c-17.326,-20.161 -32.919,-44.732 -46.78,-73.713c-8.19,-17.011 -14.175,-34.495 -17.956,-52.451c-3.78,-17.956 -5.67,-35.124 -5.67,-51.505c0,-20.791 2.835,-40.322 8.506,-58.593c5.67,-18.271 14.018,-34.021 25.043,-47.252c11.026,-13.231 24.729,-23.784 41.11,-31.659c16.381,-7.876 35.282,-11.813 56.703,-11.813c27.091,-0 49.3,6.458 66.626,19.373c17.326,12.916 31.029,29.297 41.109,49.143c10.081,19.846 17.169,41.424 21.264,64.735c4.095,23.312 6.143,45.048 6.143,65.209c-0,26.461 -1.733,53.553 -5.198,81.274c-3.465,27.721 -8.978,55.758 -16.538,84.109c23.311,-1.89 44.102,-8.348 62.373,-19.373c18.271,-11.026 33.706,-29.769 46.307,-56.231c7.561,-15.75 15.436,-23.626 23.626,-23.626c4.411,0 8.348,1.26 11.813,3.78c3.466,2.52 5.198,6.616 5.198,12.286c0,4.41 -0.945,8.82 -2.835,13.231c-12.601,35.911 -33.549,64.263 -62.846,85.054c-29.296,20.791 -61.9,31.187 -97.812,31.187c-10.711,30.871 -23.784,60.01 -39.22,87.416c-15.435,27.407 -33.549,51.506 -54.34,72.297c-20.791,20.791 -44.417,37.172 -70.878,49.142c-26.462,11.971 -55.758,17.956 -87.89,17.956c-17.011,0 -36.227,-2.52 -57.648,-7.56c-21.421,-5.041 -41.582,-15.594 -60.483,-31.659c-18.901,-16.066 -34.809,-38.747 -47.725,-68.044c-12.916,-29.296 -19.373,-68.201 -19.373,-116.713c-0,-39.692 7.403,-81.589 22.208,-125.692c14.806,-44.102 39.535,-87.889 74.187,-131.361c13.23,-16.381 25.358,-28.037 36.384,-34.967c11.025,-6.93 20.003,-10.396 26.934,-10.396c13.86,0 20.791,8.506 20.791,25.517c-0,7.56 -2.52,17.01 -7.561,28.351c-5.04,11.341 -10.395,25.831 -16.065,43.472c-5.671,17.641 -11.026,38.59 -16.066,62.846c-5.04,24.256 -7.561,52.765 -7.561,85.527c0,63.003 8.978,111.988 26.934,146.955c17.956,34.967 41.74,52.45 71.351,52.45Zm104.901,-277.844c-0,-64.263 -5.986,-110.413 -17.956,-138.45c-11.971,-28.036 -25.201,-39.219 -39.692,-33.549c-6.3,2.52 -9.923,8.191 -10.868,17.011c-0.945,8.82 -1.418,17.326 -1.418,25.516c0,13.861 1.89,28.352 5.67,43.472c3.781,15.121 8.663,30.242 14.649,45.363c5.985,15.121 13.23,29.454 21.736,42.999c8.505,13.546 17.483,25.989 26.934,37.33c0.63,-6.931 0.945,-13.546 0.945,-19.846l-0,-19.846Z" />
    <path
      d="M1154.85,687.995c15.12,-0 28.351,-5.04 39.692,-15.121c11.34,-10.08 20.948,-23.311 28.824,-39.692c7.875,-16.381 14.333,-35.439 19.373,-57.175c5.04,-21.736 8.821,-44.26 11.341,-67.571c-18.271,-12.601 -36.07,-28.982 -53.396,-49.143c-17.325,-20.161 -32.919,-44.732 -46.779,-73.713c-8.191,-17.011 -14.176,-34.495 -17.956,-52.451c-3.781,-17.956 -5.671,-35.124 -5.671,-51.505c0,-20.791 2.836,-40.322 8.506,-58.593c5.67,-18.271 14.018,-34.021 25.044,-47.252c11.025,-13.231 24.728,-23.784 41.109,-31.659c16.381,-7.876 35.282,-11.813 56.703,-11.813c27.091,-0 49.3,6.458 66.626,19.373c17.326,12.916 31.029,29.297 41.11,49.143c10.08,19.846 17.168,41.424 21.263,64.735c4.095,23.312 6.143,45.048 6.143,65.209c-0,26.461 -1.733,53.553 -5.198,81.274c-3.465,27.721 -8.978,55.758 -16.538,84.109c23.311,-1.89 44.102,-8.348 62.373,-19.373c18.271,-11.026 33.707,-29.769 46.307,-56.231c7.561,-15.75 15.436,-23.626 23.627,-23.626c4.41,0 8.347,1.26 11.813,3.78c3.465,2.52 5.197,6.616 5.197,12.286c0,4.41 -0.945,8.82 -2.835,13.231c-12.6,35.911 -33.549,64.263 -62.845,85.054c-29.297,20.791 -61.901,31.187 -97.813,31.187c-10.71,30.871 -23.784,60.01 -39.219,87.416c-15.436,27.407 -33.55,51.506 -54.341,72.297c-20.791,20.791 -44.417,37.172 -70.878,49.142c-26.462,11.971 -55.758,17.956 -87.89,17.956c-17.011,0 -36.227,-2.52 -57.648,-7.56c-21.421,-5.041 -41.582,-15.594 -60.483,-31.659c-18.901,-16.066 -34.809,-38.747 -47.725,-68.044c-12.915,-29.296 -19.373,-68.201 -19.373,-116.713c-0,-39.692 7.403,-81.589 22.208,-125.692c14.806,-44.102 39.535,-87.889 74.187,-131.361c13.23,-16.381 25.359,-28.037 36.384,-34.967c11.026,-6.93 20.004,-10.396 26.934,-10.396c13.861,0 20.791,8.506 20.791,25.517c0,7.56 -2.52,17.01 -7.56,28.351c-5.041,11.341 -10.396,25.831 -16.066,43.472c-5.67,17.641 -11.026,38.59 -16.066,62.846c-5.04,24.256 -7.56,52.765 -7.56,85.527c-0,63.003 8.978,111.988 26.934,146.955c17.955,34.967 41.739,52.45 71.351,52.45Zm104.9,-277.844c-0,-64.263 -5.985,-110.413 -17.956,-138.45c-11.971,-28.036 -25.201,-39.219 -39.692,-33.549c-6.3,2.52 -9.923,8.191 -10.868,17.011c-0.945,8.82 -1.418,17.326 -1.418,25.516c0,13.861 1.89,28.352 5.671,43.472c3.78,15.121 8.663,30.242 14.648,45.363c5.985,15.121 13.231,29.454 21.736,42.999c8.505,13.546 17.483,25.989 26.934,37.33c0.63,-6.931 0.945,-13.546 0.945,-19.846l-0,-19.846Z" />
    <path
      d="M2186.84,396.92c3.78,0 7.088,1.418 9.923,4.253c2.835,2.835 4.253,6.773 4.253,11.813c-0,5.04 -0.945,9.765 -2.835,14.176c-19.531,56.073 -37.487,105.373 -53.868,147.9c-16.381,42.527 -32.919,77.966 -49.615,106.318c-16.696,28.351 -33.864,49.772 -51.505,64.263c-17.641,14.491 -37.172,21.736 -58.593,21.736c-26.462,-0 -47.883,-6.143 -64.264,-18.428c-16.38,-12.286 -29.296,-28.194 -38.746,-47.725c-9.451,-19.531 -15.751,-41.425 -18.901,-65.681c-3.151,-24.256 -4.726,-48.355 -4.726,-72.296c0,-17.011 0.315,-33.865 0.945,-50.56c0.63,-16.696 1.418,-32.605 2.363,-47.725c0.945,-15.121 1.733,-28.667 2.363,-40.637c0.63,-11.971 0.945,-21.737 0.945,-29.297c-0,-11.971 -2.048,-20.633 -6.143,-25.989c-4.095,-5.355 -8.663,-8.033 -13.703,-8.033c-5.671,0 -10.396,2.678 -14.176,8.033c-3.78,5.356 -6.93,11.498 -9.451,18.429c-3.15,7.56 -7.875,21.106 -14.175,40.637c-6.301,19.531 -13.546,41.582 -21.736,66.153c-8.191,24.571 -16.854,50.245 -25.989,77.021c-9.136,26.777 -17.484,50.876 -25.044,72.297c-10.08,27.721 -19.688,50.245 -28.824,67.571c-9.135,17.325 -17.798,30.714 -25.989,40.164c-8.19,9.451 -16.223,15.908 -24.098,19.374c-7.876,3.465 -15.279,5.197 -22.209,5.197c-6.3,0 -12.758,-1.26 -19.374,-3.78c-6.615,-2.52 -12.6,-6.615 -17.955,-12.285c-5.356,-5.671 -9.924,-13.389 -13.704,-23.154c-3.78,-9.766 -5.67,-22.209 -5.67,-37.33c-1.26,-32.131 -2.048,-66.94 -2.363,-104.427c-0.315,-37.487 -0.472,-74.187 -0.472,-110.098c-0,-17.011 0.157,-33.392 0.472,-49.143c0.315,-15.751 0.473,-30.241 0.473,-43.472c-0,-18.271 -0.945,-31.344 -2.835,-39.22c-1.89,-7.875 -4.41,-11.813 -7.561,-11.813c-6.93,0 -12.758,6.773 -17.483,20.319c-4.725,13.546 -12.758,34.494 -24.099,62.846c-3.78,9.45 -7.718,16.065 -11.813,19.846c-4.095,3.78 -8.348,5.67 -12.758,5.67c-3.78,-0 -7.088,-1.418 -9.923,-4.253c-2.835,-2.835 -4.253,-7.718 -4.253,-14.648c0,-3.78 1.575,-10.553 4.726,-20.319c3.15,-9.765 7.087,-20.476 11.813,-32.131c4.725,-11.656 9.45,-23.626 14.175,-35.912c4.726,-12.286 8.978,-22.839 12.759,-31.659c5.67,-14.491 12.443,-29.454 20.318,-44.89c7.875,-15.436 16.696,-29.611 26.461,-42.527c9.766,-12.916 20.476,-23.626 32.132,-32.132c11.656,-8.505 24.414,-12.758 38.274,-12.758c18.271,0 34.495,10.081 48.67,30.242c14.176,20.161 21.894,50.717 23.154,91.669c0.63,32.762 1.103,63.791 1.418,93.087c0.315,29.297 0.787,54.813 1.417,76.549c0.63,21.736 1.103,39.062 1.418,51.978c0.315,12.916 0.787,19.373 1.417,19.373c1.26,0 4.096,-5.67 8.506,-17.01c4.41,-11.341 10.08,-26.304 17.011,-44.89c6.93,-18.586 14.805,-39.692 23.626,-63.318c8.82,-23.627 18.113,-47.568 27.879,-71.824c9.765,-24.256 20.003,-47.567 30.714,-69.934c10.71,-22.366 21.421,-42.054 32.132,-59.065c11.34,-18.271 23.468,-32.132 36.384,-41.582c12.916,-9.451 27.564,-14.176 43.945,-14.176c22.681,0 39.062,13.388 49.142,40.165c10.081,26.776 15.121,62.845 15.121,108.208c-0,11.34 -0.315,25.201 -0.945,41.582c-0.63,16.381 -1.418,33.706 -2.363,51.977c-0.945,18.271 -1.732,36.542 -2.362,54.813c-0.63,18.271 -0.945,34.967 -0.945,50.088c-0,25.831 1.102,46.78 3.307,62.845c2.205,16.066 5.198,28.509 8.978,37.33c3.78,8.82 7.876,14.806 12.286,17.956c4.41,3.15 8.82,4.725 13.23,4.725c12.601,-0 24.099,-5.67 34.495,-17.011c10.395,-11.34 20.318,-26.776 29.769,-46.307c9.45,-19.531 18.901,-41.74 28.351,-66.626c9.451,-24.886 19.846,-51.19 31.187,-78.912c5.67,-15.75 14.175,-23.626 25.516,-23.626Z" />
  </g>
</svg>